<svg id="圖層_1" data-name="圖層 1" xmlns="http://www.w3.org/2000/svg" viewBox="0 0 785.41 620.61"><defs><style>.cls-1{opacity:0.7;}.cls-2{fill:none;stroke:#fff;stroke-width:0.62px;}</style></defs><title>wave2</title><g class="cls-1"><path class="cls-2" d="M665.35-120.16l-1.24,9.7C657.6-59.91,650.87-7.65,637.75,41.62A429.88,429.88,0,0,1,612.43,113a298.21,298.21,0,0,1-39.66,63.92,281.88,281.88,0,0,1-32.22,33.3,313.1,313.1,0,0,1-36.67,27.41,413,413,0,0,1-83.47,40.48,670.26,670.26,0,0,1-91.73,25.39c-27.47,5.72-57.37,10.63-94.09,15.53l-19.47,2.57C95.75,337.21-27.7,353.44-119.11,429.15l-.23-.33h0a345.24,345.24,0,0,1,74.2-46.63,496.48,496.48,0,0,1,82.89-29.81c57.35-15.5,118.38-23.5,177.34-31.24l19.49-2.49c116-15.48,232.88-40.51,312.36-114.95a281.55,281.55,0,0,0,25.47-27.23c64.46-78.81,78.08-184.68,91.26-287.08l1.24-9.7" transform="translate(119.75 191)"/><path class="cls-2" d="M659.71-123.57l-1.38,10.28c-11.61,86.82-23.61,176.62-67.69,249.8a286.41,286.41,0,0,1-23.72,33.73,294.09,294.09,0,0,1-64,57.57,398.4,398.4,0,0,1-77,39.46,617.2,617.2,0,0,1-85,25.8c-26,6.07-54.82,11.37-88,16.27-6.57,1-13.25,1.91-20.43,2.9l-22.29,3c-117,15.73-238,32-328.57,104.84l-.27-.38h0A349.72,349.72,0,0,1-45.5,374.81a503.81,503.81,0,0,1,81.5-29c56.31-15.18,116.14-23.19,174-31l22.29-3q10.22-1.4,20.43-2.9c112.47-16.7,237.71-46.13,313.79-139a286,286,0,0,0,23.69-33.68c44-73.12,56-162.85,67.63-249.65l1.38-10.28" transform="translate(119.75 191)"/><path class="cls-2" d="M654.08-126.93l-1.52,10.87c-11.91,85.59-24.22,174.15-67.93,246.38a286.17,286.17,0,0,1-23.55,33.39,294.67,294.67,0,0,1-63.36,57.07,398.34,398.34,0,0,1-76.2,39.46,613,613,0,0,1-84.08,25.8c-25.8,6.07-54.3,11.52-87,16.48q-10.1,1.53-20.21,2.95L205.05,309C90.41,324.72-28.09,341-117.83,411l-.27-.35h0a354.72,354.72,0,0,1,72.32-43.3,511.71,511.71,0,0,1,80.07-28.14c55.29-14.81,113.93-22.89,170.63-30.69,8.27-1.14,16.83-2.31,25.18-3.49q10.11-1.42,20.21-2.95C349.74,287,459.38,261.62,535.62,190.2a282.17,282.17,0,0,0,25.12-26.79,285.73,285.73,0,0,0,23.52-33.3C628,58,640.23-30.56,652.12-116.15L653.64-127" transform="translate(119.75 191)"/><path class="cls-2" d="M648.42-130.31l-1.15,8.09C635.12-36.6,622.6,52,578.62,124.18a286,286,0,0,1-23.39,33,295.35,295.35,0,0,1-62.74,56.57A398.34,398.34,0,0,1,417.13,253c-45.74,18.22-99.5,31.88-169.14,42.7-6.36,1-13.1,2-20,3-9.35,1.35-18.91,2.69-28.17,4-112.18,15.79-228.18,32.1-317,99.24l-.27-.41h0c88.93-67.2,205-83.48,317.19-99.32,9.26-1.31,18.82-2.64,28.17-4,6.9-1,13.66-2,20-3C351,279.17,479,248.92,554.84,156.86a285.51,285.51,0,0,0,23.42-32.92c43.92-72.14,56.46-160.65,68.58-246.23l1.15-8.09" transform="translate(119.75 191)"/><path class="cls-2" d="M642.78-133.68,641.66-126c-12.4,84.79-25.21,172.48-69,244a285.87,285.87,0,0,1-23.22,32.63,296.09,296.09,0,0,1-62.1,56.07,398.42,398.42,0,0,1-74.49,39.16c-45.53,18.38-98.65,32.06-167.27,43q-9.86,1.58-19.73,3c-10.37,1.52-21,3-31.23,4.55C84.87,312.3-28.61,328.62-116.52,392.9l-.3-.39h0c88-64.34,201.53-80.68,311.32-96.46,10.26-1.52,20.87-3,31.23-4.55,6.83-1,13.49-2,19.73-3,91.45-14.63,202.89-40.71,279.25-112.32A277.07,277.07,0,0,0,549,150.33a285.36,285.36,0,0,0,23.21-32.56c43.8-71.46,56.61-159.1,69-243.86l1.12-7.67" transform="translate(119.75 191)"/><path class="cls-2" d="M637.18-137l-1.11,7.32c-12.67,83.92-25.8,170.72-69.4,241.59a285.75,285.75,0,0,1-23.1,32.15,296.93,296.93,0,0,1-61.48,55.57,398.6,398.6,0,0,1-73.67,39.05c-45.11,18.47-97.62,32.26-165.29,43.37q-9.77,1.62-19.58,3-17.2,2.6-34.42,5.11C81.89,306-29,322.29-115.9,383.72l-.33-.29c87-61.51,198-77.81,305.31-93.58q17.22-2.51,34.42-5.11c6.75-1,13.34-2.06,19.58-3,100.27-16.47,225-47.05,300.13-137.82a285.36,285.36,0,0,0,23-32.19C609.81,40.9,622.9-45.83,635.56-129.66l1.11-7.32" transform="translate(119.75 191)"/><path class="cls-2" d="M631.49-140.39l-1.09,7.06c-12.95,83-26.32,168.91-69.81,239.05a285.76,285.76,0,0,1-22.9,31.88,297.86,297.86,0,0,1-60.8,55.07A398.91,398.91,0,0,1,404,231.61c-44.77,18.58-96.69,32.47-163.36,43.71Q231,277,221.3,278.47c-12.51,2-25.32,3.87-37.71,5.74-104.64,15.71-213,32-298.9,90.6l-.3-.47h0c86-58.73,194.35-74.92,299.16-90.6,12.4-1.85,25.21-3.78,37.71-5.74q9.69-1.51,19.37-3.14c98.86-16.7,221.93-47.37,296.72-137.54a285.22,285.22,0,0,0,22.86-31.88C603.6,35.38,617-50.43,629.9-133.43l1.09-7.06" transform="translate(119.75 191)"/><path class="cls-2" d="M625.92-143.73l-1.11,6.86c-13.22,82.12-26.88,167-70.13,236.44a285.7,285.7,0,0,1-22.77,31.53,298.89,298.89,0,0,1-60.22,54.55,399.26,399.26,0,0,1-72,38.89A592.7,592.7,0,0,1,320.42,251c-24.81,6.47-51.69,12.2-82.12,17.52-6.07,1.06-12.57,2.14-19.17,3.19-13.66,2.19-27.61,4.33-41.13,6.39C75.79,293.77-29.91,310-114.69,365.73l-.3-.47h0A390.21,390.21,0,0,1-47.85,330.2a564.86,564.86,0,0,1,72.62-23.83c49.76-13,102.32-21,153.16-28.84,13.52-2.07,27.5-4.2,41.13-6.39,6.6-1.06,13.05-2.14,19.15-3.19,87.52-15.18,194.4-41.59,269.2-111.7a280.8,280.8,0,0,0,46.79-57C597.39,29.92,611-54.95,624.25-137l1.11-6.86" transform="translate(119.75 191)"/><path class="cls-2" d="M620.22-147.12l-1.12,6.77C605.6-59.18,591.65,24.75,548.61,93.41A285.82,285.82,0,0,1,526,124.57a300.06,300.06,0,0,1-59.6,54.05,399.74,399.74,0,0,1-71.13,38.72A588.78,588.78,0,0,1,317,244c-24.62,6.62-51.16,12.43-81.18,17.77q-9.47,1.68-19,3.25c-14.81,2.44-30,4.81-44.7,7.1-99.57,15.5-202.61,31.56-286.24,84.5l-.3-.41h0a400.09,400.09,0,0,1,66-33.39,579.1,579.1,0,0,1,71-23c48.56-12.58,99.89-20.57,149.47-28.29,14.69-2.29,29.88-4.66,44.68-7.1,6.51-1.08,12.88-2.17,18.94-3.25,86.22-15.32,191.54-41.86,265.83-111.5a282.1,282.1,0,0,0,46.58-56.56c43-68.55,56.91-152.43,70.4-233.54l1.12-6.77" transform="translate(119.75 191)"/><path class="cls-2" d="M614.59-150.52l-1.17,6.79c-13.77,80.18-28,163.08-70.8,230.93A286,286,0,0,1,520.22,118a301.29,301.29,0,0,1-59,53.55A400.35,400.35,0,0,1,391,210.13a585,585,0,0,1-77.4,26.74c-24.4,6.71-50.64,12.58-80.21,18q-9.11,1.64-18.74,3.29c-16,2.72-32.49,5.33-48.41,7.85-97,15.39-197.29,31.31-279.75,81.53l-.26-.42A411.25,411.25,0,0,1-49,315.34a594.85,594.85,0,0,1,69.43-22.05c47.43-12.14,97.4-20.1,145.69-27.78,15.92-2.52,32.37-5.13,48.4-7.85,6.42-1.09,12.73-2.2,18.73-3.29C311.92,240,421,213,496.44,142.31a279.27,279.27,0,0,0,23.31-24.62A285.37,285.37,0,0,0,542.1,87c42.74-67.76,57-150.6,70.72-230.72l1.17-6.78" transform="translate(119.75 191)"/><path class="cls-2" d="M609-153.84l-1.23,6.92c-14,79.14-28.56,161-71.1,228a286.12,286.12,0,0,1-22.23,30.36,302.68,302.68,0,0,1-58.34,53A401.07,401.07,0,0,1,386.67,203a589.45,589.45,0,0,1-76.4,26.87c-24.19,6.8-50.08,12.75-79.24,18.21q-9.25,1.73-18.53,3.34c-17.32,3-35.1,5.87-52.3,8.65-94.34,15.18-191.89,31-273,78.41l-.33-.44a423.68,423.68,0,0,1,63.56-30.13,612.43,612.43,0,0,1,67.82-21.11c46.23-11.76,94.85-19.61,141.88-27.2,17.2-2.78,34.91-5.65,52.3-8.65q9.27-1.61,18.53-3.34c85.9-16.07,208.69-47.71,283.07-136.4a285.48,285.48,0,0,0,22.19-30.36c42.49-66.92,57-148.75,71-227.77l1.23-6.92" transform="translate(119.75 191)"/><path class="cls-2" d="M603.36-157.15,602-150C587.72-71.89,572.93,8.83,530.71,75A286.38,286.38,0,0,1,508.64,105,304.23,304.23,0,0,1,451,157.57a401.92,401.92,0,0,1-68.6,38.37c-42.49,18.87-92.83,33.71-153.71,45.4q-9.15,1.76-18.32,3.38c-18.67,3.32-37.83,6.48-56.38,9.52-91.71,15-186.43,30.56-266.24,75.23l-.24-.53h0a437.89,437.89,0,0,1,62.22-28.51A632.24,632.24,0,0,1,15.78,280.2c45-11.34,92.26-19.08,138-26.58,18.55-3,37.71-6.19,56.37-9.52q9.17-1.64,18.32-3.38c84.62-16.18,205.66-48.06,279.7-136.09a285.72,285.72,0,0,0,22-30c42.19-66.06,57-146.72,71.33-224.65l1.32-7.2" transform="translate(119.75 191)"/><path class="cls-2" d="M597.77-160.5l-1.44,7.59C581.68-76,566.6,3.55,524.65,68.8a286.63,286.63,0,0,1-21.9,29.75,305.88,305.88,0,0,1-57.08,52,402.89,402.89,0,0,1-67.75,38.19c-42.24,19-91.88,33.94-151.76,45.75q-9,1.78-18.1,3.45c-20.09,3.67-40.72,7.12-60.71,10.44-88.81,14.77-180.71,30.07-258.94,72l-.3-.55A453.91,453.91,0,0,1-51,293,654.46,654.46,0,0,1,13.32,273.7c43.74-10.9,89.54-18.53,133.92-25.91,20-3.32,40.58-6.76,60.71-10.43q9.07-1.66,18.11-3.45C358.36,207.84,446.11,164.69,502.27,98.1a286,286,0,0,0,21.85-29.61C566,3.34,581.08-76.15,595.65-153l1.44-7.59" transform="translate(119.75 191)"/><path class="cls-2" d="M592.08-163.87l-1.61,8.17C575.63-80,560.27-1.64,518.66,62.66A287,287,0,0,1,496.92,92a307.72,307.72,0,0,1-56.46,51.53,404,404,0,0,1-66.9,38.14c-41.9,19.1-90.92,34.17-149.84,46.08q-8.94,1.81-17.91,3.49c-21.58,4.05-43.77,7.8-65.26,11.41-85.9,14.5-174.83,29.51-251.53,68.7l-.3-.56h0A472.28,472.28,0,0,1-51.8,285.54c19.21-6.73,39.69-12.73,62.45-18.35,42.49-10.44,86.84-17.94,129.77-25.2,21.45-3.63,43.63-7.36,65.26-11.41q9-1.69,17.89-3.49c130.18-26.32,216.87-69.38,272.83-135.53A286.33,286.33,0,0,0,518.1,62.31C559.63-1.88,575-80.15,589.82-155.83l1.61-8.17" transform="translate(119.75 191)"/><path class="cls-2" d="M586.33-167.21l-1.81,8.91c-15.18,74.5-30.73,151.53-72,214.83A287.45,287.45,0,0,1,491,85.47a309.72,309.72,0,0,1-55.71,51,405.33,405.33,0,0,1-66.06,37.95c-41.58,19.22-90,34.4-147.91,46.42q-8.84,1.83-17.7,3.54c-23.18,4.46-47,8.55-70,12.48-83,14.19-168.91,28.84-243.93,65.36l-.27-.55h0a493.27,493.27,0,0,1,58-23.62c18.67-6.33,38.5-12,60.71-17.39,41.1-10,84-17.32,125.49-24.41,23-3.93,46.85-8,70-12.48,6.07-1.17,12-2.35,17.68-3.54,110.11-22.77,191.22-59.4,246.62-111.34a285.35,285.35,0,0,0,44.3-52.79C553.33-7.06,568.94-84,584-158.47l1.81-8.91" transform="translate(119.75 191)"/><path class="cls-2" d="M580.82-170.58l-2.06,9.85C563.4-87.55,547.51-11.87,506.68,50.36a288,288,0,0,1-21.4,28.58,311.91,311.91,0,0,1-55.2,50.51,406.71,406.71,0,0,1-65.26,37.95c-41.26,19.34-89,34.64-146,46.75-5.63,1.2-11.5,2.4-17.48,3.58-24.87,4.92-50.45,9.34-75.17,13.66-80,13.74-162.74,28.05-235.92,61.84l-.29-.62h0C-77.14,277.44-39.5,264.87,5,254.2c39.7-9.5,81.07-16.7,121.08-23.56,24.72-4.27,50.29-8.68,75.15-13.66,6-1.18,11.85-2.38,17.47-3.58,124.2-26.44,211.21-70.58,266-135A287.29,287.29,0,0,0,506.09,50c40.76-62.13,56.62-137.73,72-210.85l2.06-9.85" transform="translate(119.75 191)"/><path class="cls-2" d="M575.14-173.85l-2.4,11c-15.6,71.8-31.73,146-72.12,207.15a288.56,288.56,0,0,1-21.25,28.22,314.29,314.29,0,0,1-54.64,50,408.41,408.41,0,0,1-64.36,37.79c-41,19.46-88,34.91-144.05,47.05q-8.62,1.88-17.27,3.64c-26.68,5.42-54.12,10.2-80.65,14.82C41.51,239.23-38,253.15-109.24,284.22l-.15-.68h0c32-14,68.45-25.71,111.32-35.81,38.26-9,78-15.94,116.49-22.63,26.53-4.55,54-9.4,80.63-14.81q8.64-1.75,17.26-3.64C322.55,183.43,401.46,147,456.1,95.84A296.57,296.57,0,0,0,478.86,72a287.86,287.86,0,0,0,21.25-28.14c40.31-61,56.43-135.18,72-206.92l2.4-11" transform="translate(119.75 191)"/><path class="cls-2" d="M569.56-177.26q-1.39,6.16-2.79,12.35c-15.83,70.32-32.21,143-72.09,203a289.29,289.29,0,0,1-21.14,27.81A316.92,316.92,0,0,1,419.6,115.4a410.25,410.25,0,0,1-63.51,37.69,564.86,564.86,0,0,1-69.67,27.75c-22.31,7.27-46.59,13.92-72.39,19.69-5.51,1.23-11.26,2.47-17.06,3.69-28.62,6-58.07,11.13-86.51,16.12-73.7,12.92-149.88,26.27-219,54.78l-.27-.67h0c31-12.8,66.14-23.66,107.37-33.2,36.76-8.5,74.87-15.18,111.71-21.65,28.47-5,57.9-10.15,86.51-16.12q8.54-1.78,17-3.69C318.22,176.41,396,140.1,450.24,89.22A300.79,300.79,0,0,0,473,65.4a288.53,288.53,0,0,0,21-27.78c39.81-59.83,56.15-132.48,72-202.74q1.39-6.19,2.79-12.36" transform="translate(119.75 191)"/><path class="cls-2" d="M563.75-180.65q-1.64,7-3.26,14c-16,68.78-32.65,139.89-72,198.57a290,290,0,0,1-20.9,27.47,319.8,319.8,0,0,1-53.3,49,412.3,412.3,0,0,1-62.66,37.57,561.66,561.66,0,0,1-68.72,27.87c-22.11,7.39-46.17,14.09-71.47,19.9q-8.41,1.93-16.85,3.73c-30.73,6.57-62.33,12.14-92.89,17.52C31.42,227.33-41.28,240.13-108,266l-.14-.67h0c30-11.63,63.74-21.63,103.2-30.55,35.16-8,71.54-14.37,106.72-20.57,30.55-5.39,62.22-10.94,92.87-17.52q8.43-1.81,16.83-3.73C329.32,165.9,413,122,467.24,58.89a289.29,289.29,0,0,0,20.85-27.41C527.34-27.1,543.92-98.15,560-166.85q1.64-7,3.26-14" transform="translate(119.75 191)"/><path class="cls-2" d="M558.27-184c-1.29,5.27-2.58,10.63-3.84,15.85C538.19-101,521.4-31.64,482.64,25.7A291,291,0,0,1,461.91,52.8a322.91,322.91,0,0,1-52.68,48.57,414.55,414.55,0,0,1-61.83,37.46,558.61,558.61,0,0,1-67.72,28c-21.89,7.48-45.61,14.24-70.49,20.11q-8.33,2-16.69,3.78c-33,7.24-67,13.24-99.79,19C26,221.5-43.09,233.65-107.25,257l-.26-.71h0c28.84-10.47,61.1-19.61,98.65-27.91C24.65,221,59.19,214.87,92.61,209c32.83-5.78,66.78-11.78,99.75-19,5.66-1.24,11.26-2.52,16.69-3.78,99.48-23.46,176.78-60.71,230.3-110.88a299.34,299.34,0,0,0,22-23,290.19,290.19,0,0,0,20.69-27C520.72-32,537.51-101.29,553.73-168.35c1.26-5.19,2.57-10.62,3.84-15.85" transform="translate(119.75 191)"/><path class="cls-2" d="M552.68-187.39c-1.52,6-3,12.14-4.55,18-16.41,65.39-33.39,133-71.42,189a291.92,291.92,0,0,1-20.57,26.75,326.31,326.31,0,0,1-52,48A417.11,417.11,0,0,1,343,131.66c-39.06,19.73-85,36-136.33,48.45-5.31,1.29-10.84,2.58-16.42,3.84-35.48,8-72,14.42-107.3,20.63-63.09,11.1-128.32,22.59-189.71,43.37l-.15-.74h0c61.39-20.79,126.65-32.29,189.78-43.38,35.3-6.21,71.8-12.64,107.27-20.63,5.58-1.26,11.11-2.55,16.42-3.82,112-27.11,195.78-72,248.9-133.57A291.16,291.16,0,0,0,476,19.12c37.94-55.86,54.92-123.39,71.33-188.7,1.52-5.9,3-12,4.55-18" transform="translate(119.75 191)"/><path class="cls-2" d="M547-190.74q-2.7,10.21-5.34,20.43c-8.24,31.65-16.7,64.37-27.74,95.46C501.55-39.94,487.41-11,470.68,13.4A300.69,300.69,0,0,1,428,62.87c-52.93,49.62-127.86,86.66-223.72,110.46C160.84,184.12,115.95,192,72.53,199.57c-59.19,10.35-120.36,21.05-178.6,39.33l-.14-.7h0C-48,219.83,13.24,209.12,72.44,198.74c43.4-7.59,88.28-15.44,131.72-26.23C329.36,141.45,418.78,87.76,470,13c37.24-54.37,54.33-120,70.86-183.47,1.74-6.71,3.55-13.66,5.34-20.43" transform="translate(119.75 191)"/></g></svg>