<?xml version="1.0" encoding="utf-8"?>
<!-- Generator: Adobe Illustrator 21.1.0, SVG Export Plug-In . SVG Version: 6.00 Build 0)  -->
<svg version="1.1" id="圖層_1" xmlns="http://www.w3.org/2000/svg" xmlns:xlink="http://www.w3.org/1999/xlink" x="0px" y="0px"
	 viewBox="0 0 1582.3 1030.4" style="enable-background:new 0 0 1582.3 1030.4;" xml:space="preserve">
<style type="text/css">
	.st0{opacity:0.7;}
	.st1{fill:none;stroke:url(#SVGID_1_);stroke-width:0.62;}
	.st2{fill:none;stroke:url(#SVGID_2_);stroke-width:0.62;}
	.st3{fill:none;stroke:url(#SVGID_3_);stroke-width:0.62;}
	.st4{fill:none;stroke:url(#SVGID_4_);stroke-width:0.62;}
	.st5{fill:none;stroke:url(#SVGID_5_);stroke-width:0.62;}
	.st6{fill:none;stroke:url(#SVGID_6_);stroke-width:0.62;}
	.st7{fill:none;stroke:url(#SVGID_7_);stroke-width:0.62;}
	.st8{fill:none;stroke:url(#SVGID_8_);stroke-width:0.62;}
	.st9{fill:none;stroke:url(#SVGID_9_);stroke-width:0.62;}
	.st10{fill:none;stroke:url(#SVGID_10_);stroke-width:0.62;}
	.st11{fill:none;stroke:url(#SVGID_11_);stroke-width:0.62;}
	.st12{fill:none;stroke:url(#SVGID_12_);stroke-width:0.62;}
	.st13{fill:none;stroke:url(#SVGID_13_);stroke-width:0.62;}
	.st14{fill:none;stroke:url(#SVGID_14_);stroke-width:0.62;}
	.st15{fill:none;stroke:url(#SVGID_15_);stroke-width:0.62;}
	.st16{fill:none;stroke:url(#SVGID_16_);stroke-width:0.62;}
	.st17{fill:none;stroke:url(#SVGID_17_);stroke-width:0.62;}
	.st18{fill:none;stroke:url(#SVGID_18_);stroke-width:0.62;}
	.st19{fill:none;stroke:url(#SVGID_19_);stroke-width:0.62;}
	.st20{fill:none;stroke:url(#SVGID_20_);stroke-width:0.62;}
	.st21{fill:none;stroke:url(#SVGID_21_);stroke-width:0.62;}
	.st22{fill:none;stroke:url(#SVGID_22_);stroke-width:0.62;}
</style>
<title>waveCopy2</title>
<g class="st0">
	<linearGradient id="SVGID_1_" gradientUnits="userSpaceOnUse" x1="293.093" y1="1206.1383" x2="1512.9631" y2="-13.7319">
		<stop  offset="0" style="stop-color:#CDCDCD;stop-opacity:0"/>
		<stop  offset="0.1108" style="stop-color:#CDCDCD"/>
		<stop  offset="0.8243" style="stop-color:#CDCDCD"/>
		<stop  offset="0.9946" style="stop-color:#CDCDCD;stop-opacity:0"/>
	</linearGradient>
	<path class="st1" d="M0.6,913c32.6-8.5,64.1-21.1,93.5-37.5c29.6-16.5,57.6-35.6,83.8-57c53.2-42.9,101.8-94.2,148.9-143.8
		l15.5-16.4c92.8-97.5,195.1-189.2,318-212.8c14-2.7,28.3-4.5,42.5-5.3c116.9-6.7,224.5,52.2,328.7,109.1l9.9,5.4
		c49.3,26.9,107.6,56.9,167,75.7c64.3,20.4,121.6,25.3,175.1,15l1.4-0.3c24.9-4.8,48.8-13.5,71-25.8c22.1-12.1,41.5-28.6,57.1-48.4
		c15.6-20.1,26-43.6,30.5-68.6c4.6-25.9,2.2-51.5-7-73.9c-11.2-27.5-31.8-51-62.8-71.8c-28.2-18.9-61.1-33.1-89.7-44.8L1162,220.6
		c-2.5-1-5-2-7.8-3.2c-15.7-6.4-33.5-13.6-47.7-23.1c-16.2-10.9-25.5-23.3-28.3-37.8c-6.6-34.4,3.7-64.3,30.7-88.9
		c28-25.5,73.7-44.7,131.9-55.8c22.7-4.3,45.6-7.3,68.6-9c82.5-6.3,172.4,1.8,240.6,21.6l0.1-0.5c-33.5-9.8-73.3-16.9-114.9-20.6
		c-41.9-3.8-83.9-4.1-125.8-1c-43.3,3.3-82.2,10.3-115.8,20.6c-36.4,11.3-64.9,26.1-84.8,44.3c-27.1,24.7-37.6,54.7-30.9,89.3
		c2.8,14.7,12.1,27.2,28.5,38.2c14.2,9.6,32,16.8,47.8,23.1c2.7,1.1,5.2,2.1,7.8,3.2l221.9,91.3c63.6,26.2,127.8,56.7,152.3,116.4
		c18.3,44.4,9.1,100.2-23.5,142.1c-28.8,37.2-74.3,63.4-127.9,74l-1.4,0.3c-119.8,23-239.2-34.8-341.7-90.8l-9.9-5.4
		c-51.5-28.1-104.6-57.2-159.3-78.3c-27-10.7-55-18.9-83.5-24.7c-28.4-5.7-57.4-7.8-86.3-6.3c-17.8,1-35.4,3.5-52.8,7.4
		c-17.1,3.9-33.9,9.1-50.3,15.5c-33.1,13.2-64.7,30-94.1,50.3c-30.1,20.7-58.7,43.5-85.6,68.2c-23.9,21.7-48.6,46.2-78,77
		l-15.5,16.4c-95.3,100.5-193.8,204.3-326,238.2L0.6,913L0.6,913z"/>
	<linearGradient id="SVGID_2_" gradientUnits="userSpaceOnUse" x1="297.5578" y1="1207.333" x2="1511.0714" y2="-6.1806">
		<stop  offset="0" style="stop-color:#CDCDCD;stop-opacity:0"/>
		<stop  offset="0.1108" style="stop-color:#CDCDCD"/>
		<stop  offset="0.8243" style="stop-color:#CDCDCD"/>
		<stop  offset="0.9946" style="stop-color:#CDCDCD;stop-opacity:0"/>
	</linearGradient>
	<path class="st2" d="M9.4,918.6c31.9-8.8,62.5-21.4,91.3-37.7c28.9-16.4,56.3-35.2,82-56.2c52.2-42.1,100.1-92.3,146.3-140.9
		L347,665c5.5-5.7,11-11.4,16.5-17C455,554.7,567,458.1,704.8,450.1c15.8-0.9,31.6-0.7,47.3,0.7c97.8,8.5,189.4,58,277.9,105.8
		l10.5,5.7c48.1,26.1,105.1,55.2,163,73.5c63.2,20.1,119.6,24.9,172.2,14.9l0.5-0.1c24.1-4.5,47.3-12.7,68.9-24.4
		c21.6-11.6,40.7-27.2,56.3-46.2c15.6-19.3,26.4-41.9,31.5-66.2c5.2-25,3.8-49.7-4.3-71.6c-9.9-26.8-28.7-50-57.5-70.9
		c-26.2-19-57.3-33.6-84.4-45.9c-70.4-31.5-143.3-63.3-213.8-94.1c-2.6-1.1-5.2-2.2-7.9-3.4l-4.7-2c-32.8-14.2-62.7-29.3-68.5-58.8
		c-9.7-49.7,16.7-90.9,76.3-119.1c22.9-10.5,47-18.5,71.6-23.9c5.4-1.2,10.8-2.3,16.2-3.3c93.4-17.9,210-12.4,295.8,14.5l0.1-0.5
		c-23.6-7.3-47.8-12.8-72.2-16.6c-26.6-4.2-53.4-6.8-80.3-7.9c-57-2.2-112.3,2.4-159.7,13.2c-24.7,5.3-48.7,13.3-71.6,23.8
		c-28.6,13.5-49.7,30-62.7,49c-14.3,20.7-18.9,44.5-13.8,70.6c2.7,13.8,11,25.7,25.4,36.3c12.8,9.3,28.4,16.5,43.3,22.9l4.7,2
		c2.8,1.2,5.3,2.3,7.9,3.4c70.4,30.7,143.4,62.5,213.8,94.1c60,27.1,120.3,58.4,141.7,116.5c16,43.3,5.3,97.2-27.1,137.3
		c-28.7,35.5-73.1,60.5-124.8,70.5l-0.5,0.1c-117.4,22.3-234.4-34-334.9-88.4l-10.5-5.7c-88.6-47.9-180.3-97.4-278.1-105.9
		c-15.8-1.4-31.6-1.6-47.4-0.7c-33.1,2.1-65.7,9-96.8,20.6c-31.1,11.7-60.9,26.8-88.8,45c-28.6,18.6-55.8,39.1-81.4,61.6
		c-23.3,20.1-47.6,43.3-74.6,70.9c-5.5,5.7-11,11.3-16.5,17l-17.9,18.7C235.2,781.5,138.3,883,9.3,918L9.4,918.6z"/>
	<linearGradient id="SVGID_3_" gradientUnits="userSpaceOnUse" x1="301.9424" y1="1208.5974" x2="1509.4489" y2="1.0909">
		<stop  offset="0" style="stop-color:#CDCDCD;stop-opacity:0"/>
		<stop  offset="0.1108" style="stop-color:#CDCDCD"/>
		<stop  offset="0.8243" style="stop-color:#CDCDCD"/>
		<stop  offset="0.9946" style="stop-color:#CDCDCD;stop-opacity:0"/>
	</linearGradient>
	<path class="st3" d="M18.3,924.1c31.1-9.1,61-21.8,89.1-38c28.3-16.2,55.1-34.8,80.3-55.5c51.1-41.4,98.3-90.5,143.8-138
		c6.6-6.9,13.5-14.1,20.3-21.1c5.4-5.6,10.9-11.2,16.4-16.8c81.2-82.2,178.9-167.1,296.9-189.7c13.8-2.7,27.8-4.4,41.9-5.3
		c15.6-0.9,31.3-0.7,46.9,0.6c96.7,8.1,187.3,56.5,274.9,103.3l11.1,5.9c47,25.3,102.6,53.5,159.1,71.3
		c61.7,19.5,116.6,24.4,167.9,15c23.6-4.2,46.5-12.1,67.7-23.3c21.1-11,39.8-25.9,55.3-43.9c15.6-18.4,26.7-40.2,32.5-63.6
		c5.8-24.1,5.3-48-1.7-69.3c-8.5-26.2-25.6-49.1-52.2-70c-24.6-19.3-53.8-34.3-79.3-46.8c-59.9-29.5-123.4-58.8-184.7-87.2
		l-20.8-9.8l-8.1-3.7l-4.2-1.9c-31.7-14.4-60.5-29.8-66.3-58.8c-9.8-49.4,14.5-89.2,72.4-118.2c22.2-10.9,45.5-19.2,69.6-24.8
		c92.7-22.9,218.6-18.3,306,11.3l0.2-0.5c-23.1-7.6-46.8-13.4-70.8-17.4c-26.1-4.4-52.4-7.1-78.8-8.1c-26.9-1.1-53.8-0.5-80.6,1.8
		c-25.7,2.1-51.1,6.3-76.1,12.3c-24.1,5.7-47.5,14-69.7,24.9c-27.4,13.8-47.7,30.3-60,49.1c-13.5,20.6-17.8,44-12.7,69.7
		c2.7,13.6,10.8,25.4,24.8,36c12.4,9.4,27.4,16.6,41.8,23.2l4.2,1.9c2.8,1.3,5.4,2.5,8.1,3.7l20.9,9.6
		c61.4,28.4,124.8,57.7,184.7,87.2c56.2,27.7,112.6,59.5,131.2,116.6c13.8,42.1,1.8,94-30.7,132.5c-28.8,34.1-72.4,57.9-122.7,67.1
		c-114.4,20.9-228.6-33.6-326.6-86.3l-11.2-6c-87.6-46.7-178.3-95.2-275.1-103.3c-15.6-1.3-31.3-1.6-47-0.7
		c-32.8,2.1-65.1,8.9-95.9,20.3c-30.9,11.5-60.5,26.3-88.2,44.2c-28.4,18.3-55.4,38.6-80.8,60.8c-23.1,19.9-47.4,42.7-74.1,69.8
		c-5.5,5.6-11,11.2-16.4,16.8c-6.7,7-13.5,14-20.2,21.1c-92.1,96-187.3,195.2-313.1,231.3L18.3,924.1L18.3,924.1z"/>
	<linearGradient id="SVGID_4_" gradientUnits="userSpaceOnUse" x1="306.6002" y1="1209.6588" x2="1507.5675" y2="8.6915">
		<stop  offset="0" style="stop-color:#CDCDCD;stop-opacity:0"/>
		<stop  offset="0.1108" style="stop-color:#CDCDCD"/>
		<stop  offset="0.8243" style="stop-color:#CDCDCD"/>
		<stop  offset="0.9946" style="stop-color:#CDCDCD;stop-opacity:0"/>
	</linearGradient>
	<path class="st4" d="M27.2,929.7c122.6-37.3,216.2-134.3,306.7-227.9c7.5-7.7,15.2-15.7,22.8-23.5c5.6-5.8,11.1-11.3,16.3-16.5
		c84.6-85,199.3-183.7,336.2-192c15.5-0.9,31-0.8,46.5,0.5c96.8,7.9,187.6,56.1,275.4,102.6l8.3,4.4c48.5,25.8,100.8,51.8,155.2,69
		c60.1,19,113.6,24,163.6,15.3c23-3.9,45.3-11.3,66-22c20.6-10.4,39-24.6,54.4-41.8c15.6-17.6,27.1-38.5,33.5-61.1
		c6.5-23.2,6.8-46.3,0.9-67.1c-15.8-56.2-68.4-88.6-121-117c-56.7-30.6-118.1-60.8-177.5-89.9l-20-9.8c-2.6-1.3-5.3-2.6-8.1-3.9
		l-3.7-1.8c-30.5-14.7-58.3-30.3-64.2-58.8c-9.9-48.5,13.2-88,68.6-117.4c21.4-11.1,44.1-19.7,67.5-25.7
		c91.6-24.2,214.9-19.4,300,11.6l0.2-0.5c-22.5-8-45.6-14.1-69.2-18.2c-25.6-4.5-51.4-7.3-77.3-8.3c-26.4-1.1-52.8-0.4-79.2,2
		c-25.2,2.3-50.1,6.6-74.5,12.9c-23.4,6-46.1,14.6-67.6,25.7c-26.3,14-45.6,30.5-57.4,49.3c-12.8,20.4-16.7,43.5-11.5,68.7
		c2.7,13.4,10.7,25,24.1,35.7c11.9,9.5,26.4,16.8,40.4,23.5l3.7,1.8c2.7,1.3,5.4,2.6,8.1,3.9l20,9.8
		c59.4,29.1,120.9,59.3,177.5,89.9c52.5,28.4,105,60.7,120.7,116.7c11.6,40.9-1.8,91-34.3,127.7c-28.8,32.5-71.4,55.1-120.2,63.7
		c-110.6,19.3-222.3-33.4-318.4-84.3l-8.3-4.4c-87.9-46.5-178.7-94.8-275.6-102.6c-15.5-1.3-31-1.5-46.5-0.5
		c-32.5,2.1-64.5,8.9-95,20.1c-30.6,11.4-59.9,26-87.5,43.6c-47.9,30.2-96.9,71-154,128.5c-5.5,5.5-10.9,11-16.4,16.5
		c-7.6,7.8-15.3,15.8-22.8,23.5C243,795,149.4,891.9,27,929.1L27.2,929.7z"/>
	<linearGradient id="SVGID_5_" gradientUnits="userSpaceOnUse" x1="311.2268" y1="1210.8328" x2="1505.8541" y2="16.2054">
		<stop  offset="0" style="stop-color:#CDCDCD;stop-opacity:0"/>
		<stop  offset="0.1108" style="stop-color:#CDCDCD"/>
		<stop  offset="0.8243" style="stop-color:#CDCDCD"/>
		<stop  offset="0.9946" style="stop-color:#CDCDCD;stop-opacity:0"/>
	</linearGradient>
	<path class="st5" d="M36,935.2c119.4-38.4,211.2-132.9,300.1-224.4c8.4-8.5,16.9-17.4,25.3-26c5.3-5.5,10.7-10.9,16.2-16.3
		c75.4-75.2,175-161.2,293.2-183.8c13.3-2.6,26.9-4.3,40.4-5.1c15.3-0.9,30.7-0.8,46,0.4c96.1,7.6,186.3,54.9,273.5,100.6l7.9,4.1
		c47.4,24.8,98.5,50.1,151.3,66.8c58.6,18.5,110.7,23.5,159.2,15.4c47.2-7.8,89-29.3,117.8-60.3c15.6-16.8,27.4-36.8,34.5-58.6
		c7.1-22.2,8.3-44.6,3.6-64.8c-5.9-25-19.6-47.3-41.7-68.3c-20.2-19-44.9-34.8-68.8-48.9c-53.4-31.7-112.8-62.6-170.3-92.5
		l-19.1-9.9c-2.7-1.4-5.4-2.8-8.1-4.2l-3.3-1.7c-29.3-15-56.2-30.8-62-58.8c-9.9-47.6,11.9-86.8,64.8-116.6
		c20.7-11.4,42.6-20.3,65.4-26.5c90.1-25.5,211-20.7,294,11.8l0.2-0.5c-21.9-8.4-44.6-14.7-67.7-19c-25.1-4.7-50.4-7.6-75.9-8.6
		c-25.9-1.1-51.9-0.4-77.7,2.2c-24.7,2.4-49.1,6.9-72.9,13.5c-22.8,6.3-44.8,15.2-65.5,26.6c-25.2,14.2-43.6,30.9-54.7,49.4
		c-12,20.2-15.5,43-10.4,67.8c2.7,13.1,10.3,24.8,23.4,35.4c11.5,9.4,25.5,16.9,38.8,23.7l3.3,1.7c2.7,1.4,5.4,2.8,8.1,4.2l19.1,10
		c57.4,29.9,116.9,60.9,170.3,92.6c48.7,28.9,97.2,61.7,110.3,116.8c9.4,39.8-5.5,88-37.9,122.9c-28.8,31-70.5,52.3-117.5,60.2
		c-107.6,18-216.6-33-310.3-82.1l-7.9-4.1c-87.2-45.8-177.4-93.2-273.6-100.8c-15.3-1.2-30.7-1.4-46-0.5
		c-32.2,2.1-63.8,8.8-94.1,19.9c-30.3,11.2-59.4,25.6-86.7,42.9c-47.9,29.9-96.5,70.1-153.1,126.5c-5.4,5.4-10.8,10.8-16.2,16.3
		c-8.4,8.6-17,17.5-25.3,26C247,801.8,155.1,896.3,35.9,934.7L36,935.2L36,935.2z"/>
	<linearGradient id="SVGID_6_" gradientUnits="userSpaceOnUse" x1="315.6348" y1="1212.2043" x2="1504.1237" y2="23.7154">
		<stop  offset="0" style="stop-color:#CDCDCD;stop-opacity:0"/>
		<stop  offset="0.1108" style="stop-color:#CDCDCD"/>
		<stop  offset="0.8243" style="stop-color:#CDCDCD"/>
		<stop  offset="0.9946" style="stop-color:#CDCDCD;stop-opacity:0"/>
	</linearGradient>
	<path class="st6" d="M44.9,940.8c116-39.4,206.2-131.6,293.4-220.7c9.3-9.5,18.7-19.1,28-28.6c5.5-5.6,10.9-11,16-16.2
		c83.1-82.1,195.8-177.5,331-186c15.2-0.9,30.4-0.8,45.5,0.3c95.3,7.3,184.8,53.7,271.4,98.6l7.6,3.9c46.3,24,96.2,48.3,147.3,64.5
		c57,18,107.7,23,155,15.6c45.5-7.2,86.5-27.4,115.3-56.9c15.7-16,27.7-35.1,35.4-56.1c7.7-21.3,9.8-42.9,6.2-62.6
		c-4.5-24.4-16.4-46.4-36.4-67.4c-18.6-19.5-42.6-36.2-63.6-49.9c-50.2-32.8-107.5-64.5-163-95.2l-18.2-10.1c-2.7-1.5-5.4-3-8.2-4.5
		l-2.8-1.5c-28.2-15.3-54-31.3-59.8-58.8c-9.9-46.7,10.6-85.7,60.9-115.8c19.9-11.6,41.2-20.8,63.3-27.3c12.4-3.8,25-6.8,37.7-9.3
		c82.4-15.8,180.3-8.1,250.3,21.2l0.2-0.5c-21.3-8.8-43.5-15.4-66.1-19.8c-24.6-4.9-49.5-7.8-74.5-8.9c-25.4-1.1-50.9-0.3-76.3,2.4
		c-24.2,2.5-48.2,7.3-71.5,14.3c-22.1,6.6-43.4,15.8-63.3,27.5c-24.1,14.4-41.5,31.1-51.9,49.5c-11.3,20.1-14.4,42.5-9.3,66.8
		c2.8,12.9,10.2,24.4,22.7,35.1c11,9.5,24.6,17.1,37.4,24.1l2.8,1.5c2.7,1.5,5.4,3,8.2,4.5l18.2,10.1c55.4,30.6,112.9,62.4,163,95.2
		c42.9,28.1,89.6,62.6,99.7,116.9c7.3,39.2-8.6,84.5-41.5,118.1c-28.7,29.4-69.6,49.6-114.9,56.7c-104.3,16.5-206.5-30.5-302.1-80.1
		l-7.6-3.9c-86.6-44.9-176.2-91.4-271.6-98.7c-15.1-1.1-30.4-1.2-45.5-0.2c-31.8,2.2-63.2,8.8-93.2,19.6c-30.1,11-59,25.1-86.2,42.1
		c-47.6,29.4-96,69-152,124.4c-5.4,5.3-10.7,10.7-16,16.2c-9.3,9.5-18.7,19-28,28.6C250.8,808.8,160.7,901,44.9,940.3L44.9,940.8z"
		/>
	<linearGradient id="SVGID_7_" gradientUnits="userSpaceOnUse" x1="320.3479" y1="1213.4928" x2="1502.4845" y2="31.3562">
		<stop  offset="0" style="stop-color:#CDCDCD;stop-opacity:0"/>
		<stop  offset="0.1108" style="stop-color:#CDCDCD"/>
		<stop  offset="0.8243" style="stop-color:#CDCDCD"/>
		<stop  offset="0.9946" style="stop-color:#CDCDCD;stop-opacity:0"/>
	</linearGradient>
	<path class="st7" d="M53.8,946.3c112.7-40.3,201-130.1,286.4-217c10.1-10.3,20.5-20.9,30.8-31.2c5.5-5.5,10.9-10.8,16-15.9
		c82.3-80.7,194-174.4,328.4-183c15-0.9,30.1-0.8,45.1,0.3c94.5,7,183.4,52.5,269.3,96.6l7.3,3.8c45.2,23.1,93.8,46.7,143.4,62.3
		c55.5,17.4,104.8,22.6,150.7,15.7c43.9-6.5,83.9-25.5,112.7-53.4c15.7-15.2,28.1-33.4,36.4-53.6c8.3-20.3,11.3-41.2,8.8-60.3
		c-3.1-23.8-13.3-45.5-31.1-66.5c-17-20-39-37-58.3-51c-46.9-33.9-102.2-66.4-155.8-97.9l-17.3-10.2c-2.7-1.6-5.4-3.2-8.2-4.8
		l-2.4-1.4c-27-15.6-51.8-31.8-57.7-58.8c-9.9-45.8,9.3-84.5,57.1-114.9c19.1-11.9,39.7-21.4,61.2-28.2c13.4-4.3,27-7.8,40.7-10.4
		c79.7-15.3,175.2-7.1,241.3,22.6l0.2-0.5c-20.8-9.1-42.4-16-64.6-20.6c-24.1-5.1-48.5-8.2-73.1-9.3c-25-1.1-50-0.2-74.8,2.7
		c-23.8,2.7-47.2,7.7-70,14.9c-21.6,6.8-42.2,16.4-61.4,28.3c-48.1,30.5-67.3,69.5-57.4,115.6c2.7,12.8,9.9,24.1,22,34.8
		c10.6,9.5,23.6,17.3,36,24.4l2.4,1.4c2.8,1.6,5.5,3.2,8.2,4.8l17.3,10.2c53.5,31.5,108.8,64,155.7,97.9
		c39.4,28.5,82.1,63.4,89.2,117c5.1,38-12.2,81.4-45.1,113.3c-28.7,27.8-68.5,46.8-112.4,53.3c-101.3,15.1-200.7-30.3-293.8-78
		l-7.3-3.8c-86-44.1-174.9-89.7-269.5-96.6c-15-1.1-30.1-1.2-45.1-0.2c-31.5,2.2-62.6,8.7-92.3,19.3c-29.8,10.8-58.5,24.7-85.5,41.4
		c-47.5,29.1-95.5,68-151,122.4c-5.4,5.3-10.7,10.6-16,15.9c-10.3,10.3-20.7,20.9-30.8,31.2c-85.4,86.7-173.8,176.6-286.3,216.8
		L53.8,946.3L53.8,946.3z"/>
	<linearGradient id="SVGID_8_" gradientUnits="userSpaceOnUse" x1="324.9788" y1="1214.8173" x2="1500.8785" y2="38.9176">
		<stop  offset="0" style="stop-color:#CDCDCD;stop-opacity:0"/>
		<stop  offset="0.1108" style="stop-color:#CDCDCD"/>
		<stop  offset="0.8243" style="stop-color:#CDCDCD"/>
		<stop  offset="0.9946" style="stop-color:#CDCDCD;stop-opacity:0"/>
	</linearGradient>
	<path class="st8" d="M62.6,951.9c27.2-10.4,53.3-23.3,78-38.8c24.9-15.5,48.7-32.7,71.2-51.4c45.7-37.5,88.7-81,130.3-123
		c11.1-11.2,22.5-22.7,33.7-33.9c5.5-5.4,10.8-10.7,15.9-15.7c73.3-71.2,170-152.7,285.8-174.9c27.9-5.4,56.3-7.1,84.7-5
		c93.7,6.7,181.8,51.3,267.1,94.5l7.1,3.6c44,22.3,91.4,45,139.5,60.1c53.9,16.9,101.8,22.2,146.5,15.8c3.8-0.5,7.6-1.1,11.4-1.9
		c37.8-7.3,72.6-24.1,98.6-48.1c15.7-14.4,28.5-31.7,37.4-51c8.9-19.4,12.8-39.5,11.4-58c-1.8-23.2-10.2-44.7-25.8-65.6
		s-36.5-38.7-53.1-52c-43.6-35-97-68.4-148.6-100.6l-16.3-10.2c-3.4-2.1-6.8-4.2-10.2-6.3c-20.7-12.8-49.2-30.3-55.5-58.8
		c-9.9-45,8-83.4,53.3-114.1c18.4-12.2,38.3-22,59.2-29.1c84-29.3,200.2-24.1,276,12.5l0.3-0.6C1497.4,68.9,1406.3,60.2,1329,75
		c-15.2,2.9-30.2,6.8-44.8,11.9c-21,7.1-40.9,16.9-59.3,29.2c-45.5,30.9-63.5,69.5-53.5,114.8c2.8,12.4,9.7,23.7,21.3,34.5
		c10.1,9.5,22.6,17.4,34.5,24.7c3.1,1.9,6.7,4.1,10.2,6.3l16.3,10.2c51.6,32.3,104.9,65.6,148.5,100.6c44.6,35.8,75,69.4,78.7,117.1
		c2.8,36.8-15.8,78.4-48.7,108.5c-28.6,26.3-67.6,44-109.8,49.8c-98.2,13.7-194.9-30-285.6-75.9l-7.1-3.6
		c-85.3-43.2-173.5-87.9-267.3-94.6c-14.9-1.1-29.8-1.1-44.7-0.1c-31.2,2.2-62,8.6-91.4,19.1c-29.6,10.6-58,24.3-84.8,40.7
		c-27.4,16.7-53.5,35.4-78.2,55.8c-22.8,18.7-46.3,39.8-71.8,64.5c-5.3,5.2-10.6,10.4-15.9,15.7c-11.3,11.2-22.7,22.8-33.7,33.9
		C258,822.8,171.5,910.1,62.4,951.3L62.6,951.9z"/>
	<linearGradient id="SVGID_9_" gradientUnits="userSpaceOnUse" x1="329.9342" y1="1216.0865" x2="1499.3247" y2="46.696">
		<stop  offset="0" style="stop-color:#CDCDCD;stop-opacity:0"/>
		<stop  offset="0.1108" style="stop-color:#CDCDCD"/>
		<stop  offset="0.8243" style="stop-color:#CDCDCD"/>
		<stop  offset="0.9946" style="stop-color:#CDCDCD;stop-opacity:0"/>
	</linearGradient>
	<path class="st9" d="M71.5,957.5c26.4-10.6,51.7-23.6,75.7-38.8c24.2-15.3,47.3-32.2,69.4-50.6c44.5-36.7,86.6-79,127.3-119.9
		c12.1-12.1,24.5-24.6,36.8-36.8c5.2-5.2,10.5-10.3,15.8-15.4c72.5-69.8,168.4-149.9,283.4-171.9c27.7-5.3,56-7.1,84.1-5.1
		c92.8,6.3,180.2,50.1,264.8,92.3l7.1,3.5c42.9,21.5,89,43.3,135.6,57.8c52.3,16.4,98.8,21.6,142.2,16c4.5-0.6,8.9-1.3,13.3-2.1
		c35.7-6.8,68.7-22.3,94.2-44.4c15.8-13.6,28.8-30,38.4-48.5c9.5-18.5,14.3-37.8,14-55.8c-0.4-22.7-7.1-43.9-20.5-64.7
		c-10.7-16.7-25.5-33-47.8-53c-40.3-36-91.7-70.2-141.4-103.3l-15.4-10.3c-3.2-2.2-6.5-4.3-9.7-6.5c-19.8-13-47-30.8-53.3-58.9
		c-10-44.2,6.7-82.3,49.4-113.3c17.6-12.5,36.8-22.6,57.1-30c15.7-5.8,31.9-10.3,48.4-13.4c74.6-14.3,161.3-5,221.7,26l0.3-0.6
		c-35.6-18.3-82.4-29.6-131.7-32.1c-24-1.2-48.1-0.2-72,3c-22.8,3-45.3,8.4-66.9,16.3c-20.3,7.4-39.6,17.6-57.2,30.1
		c-20.7,15-35.4,31.8-43.9,49.9c-9,19.5-11,41.1-5.8,64c2.8,12.2,9.5,23.4,20.6,34.2c9.7,9.5,21.6,17.5,33,25
		c2.9,1.9,6.4,4.2,9.7,6.5l15.4,10.3c49.7,33.1,101,67.3,141.3,103.3c34.9,31.2,67.3,67,68.2,117.2c0.6,35.6-19.4,75.3-52.2,103.8
		c-28.6,24.7-66.6,41.2-107.2,46.4c-95.2,12.2-189.2-29.7-277.4-73.8l-7.1-3.5c-84.6-42.3-172.1-86-265.1-92.4
		c-14.7-1-29.5-1-44.2-0.1c-30.9,2.2-61.4,8.6-90.5,18.9c-29.3,10.5-57.5,23.9-84.1,40C517.9,593.6,492,612,467.4,632
		c-22.8,18.4-46.1,39.2-71.4,63.5c-5.3,5.1-10.6,10.3-15.8,15.4c-12.3,12.1-24.8,24.7-36.8,36.8c-81.7,82.1-166.3,167.1-272,209.1
		L71.5,957.5L71.5,957.5z"/>
	<linearGradient id="SVGID_10_" gradientUnits="userSpaceOnUse" x1="334.5947" y1="1217.7699" x2="1497.9171" y2="54.4475">
		<stop  offset="0" style="stop-color:#CDCDCD;stop-opacity:0"/>
		<stop  offset="0.1108" style="stop-color:#CDCDCD"/>
		<stop  offset="0.8243" style="stop-color:#CDCDCD"/>
		<stop  offset="0.9946" style="stop-color:#CDCDCD;stop-opacity:0"/>
	</linearGradient>
	<path class="st10" d="M80.3,963c25.5-10.8,50.1-23.7,73.3-38.8c23.5-15.2,46-31.8,67.4-49.7c43.3-35.9,84.5-77,124.3-116.7
		c13.1-13.1,26.6-26.6,40-39.7c5.2-5.1,10.5-10.2,15.7-15.2c66.5-63.5,165.4-146.7,282.1-169c12.8-2.4,25.7-4.1,38.7-5
		c14.5-1,29.1-1,43.7,0c91.9,6,178.6,48.8,262.4,90.2l7.1,3.5c85.8,42.3,177.3,82.7,269.5,71.8c19.3-2.3,38.2-7.1,56.2-14.4
		c17.6-7.1,34-16.7,48.8-28.6c15.8-12.8,29.2-28.4,39.4-46c10.1-17.6,15.8-36.1,16.6-53.5c1-22.3-4.3-44.4-15.2-63.8
		c-9.2-17-22.7-34.1-42.7-54.1c-37.1-37.2-86.4-72.2-134.3-106.2l-14.4-10.3c-2.6-1.9-5.5-4-9.3-6.6c-18.9-13.2-44.8-31.4-51.2-58.9
		c-9.9-43.5,5.5-81.4,45.8-112.5c16.8-12.8,35.3-23.2,55-30.9c79.6-31.7,193.1-26.2,264.1,12.9l0.4-0.5
		c-34.5-19-80.2-30.8-128.8-33.2s-97.1,4.7-135.9,20.2c-19.8,7.7-38.4,18.2-55.2,31c-19.6,15.1-33.4,31.9-41.2,50
		c-8.3,19.3-9.9,40.6-4.7,63.1c2.8,12,9.3,23.1,19.9,33.9c9.3,9.5,20.7,17.7,31.5,25.3c3.8,2.7,6.7,4.7,9.3,6.6
		c4.8,3.5,9.6,6.9,14.5,10.3c47.7,33.9,97.1,69,134.1,106.1c29.8,29.9,60,67.2,57.7,117.4c-1.6,34.4-23,72.3-55.8,99
		c-28.5,23.1-65.6,38.3-104.6,43c-92,10.9-183.5-29.5-269.2-71.7l-7.1-3.5c-84-41.4-170.7-84.2-262.7-90.2c-14.6-1-29.2-1-43.8,0
		c-30.6,2.2-60.7,8.5-89.7,18.7c-29,10.3-57,23.4-83.4,39.3c-27,16.1-52.8,34.1-77.2,53.9c-22.7,18.2-45.9,38.6-70.9,62.4
		c-5.3,5-10.5,10.1-15.7,15.2c-13.4,13.1-26.9,26.6-40,39.7c-79.9,79.9-162.5,162.4-264.9,205.2l0.2,0.5L80.3,963z"/>
	<linearGradient id="SVGID_11_" gradientUnits="userSpaceOnUse" x1="339.2181" y1="1219.4305" x2="1496.442" y2="62.2065">
		<stop  offset="0" style="stop-color:#CDCDCD;stop-opacity:0"/>
		<stop  offset="0.1108" style="stop-color:#CDCDCD"/>
		<stop  offset="0.8243" style="stop-color:#CDCDCD"/>
		<stop  offset="0.9946" style="stop-color:#CDCDCD;stop-opacity:0"/>
	</linearGradient>
	<path class="st11" d="M89.2,968.6c24.7-10.9,48.4-23.9,71-38.8c22.7-15,44.6-31.3,65.5-48.8c42.2-35,82.3-75,121.2-113.6
		c14.2-14.1,28.8-28.7,43.4-42.8c5.2-5,10.4-10,15.6-15c73-69,185.4-161.9,318.2-171.1c14.4-1,28.8-1,43.2-0.1
		c91,5.7,176.9,47.5,259.9,87.9l7.3,3.5c46.9,22.8,86.6,40.6,127.7,53.4c49.3,15.3,92.9,20.6,133.6,16.3c18.7-2,37-6.4,54.6-13.2
		c17.1-6.5,33.2-15.5,47.8-26.5c15.9-12,29.6-26.7,40.5-43.5c10.7-16.7,17.3-34.4,19.2-51.2c2.5-21.5-1-43.2-10-62.9
		c-7.8-17.5-19.6-35-37.4-55.1c-33.2-37.5-79.5-72.9-124.4-107c-5.3-4-10.7-8.2-16.1-12.3c-3.1-2.3-6-4.6-8.9-6.8
		c-18-13.5-42.6-31.9-49-58.9c-10.1-42.8,4-80.3,41.8-111.7c16-13.1,33.9-23.8,53-31.8c17.1-7.2,34.9-12.5,53.1-15.9
		c69.8-13.4,150.4-3.1,205,29l0.4-0.6c-33.4-19.7-78.1-31.8-125.8-34.3s-95.1,5-132.9,21.2c-19.2,8-37.1,18.8-53.2,32
		c-18.4,15.3-31.3,32.1-38.5,50.2c-7.6,19.2-8.8,40.1-3.5,62.1c2.8,11.8,9.1,22.8,19.2,33.6c8.9,9.5,19.7,17.9,30,25.6
		c2.8,2,5.9,4.4,8.9,6.8c5.3,4.1,10.8,8.2,16.1,12.3c44.8,34.1,91.2,69.4,124.3,106.9c37.6,42.4,51.7,77.6,47.2,117.5
		c-3.8,33.7-26,68.9-59.4,94.2c-28.4,21.5-64.6,35.5-102,39.5c-89.1,9.5-177.8-29.2-261-69.6l-7.3-3.5c-83.1-40.4-169-82.2-260.1-88
		c-14.4-0.9-28.8-0.8-43.2,0.2c-30.3,2.2-60.1,8.4-88.8,18.4c-28.8,10.1-56.5,23-82.7,38.6c-26.7,15.9-52.3,33.5-76.6,52.9
		c-22.7,17.9-45.7,38-70.5,61.4c-5,4.8-10.3,9.8-15.6,15c-14.5,14-29.2,28.7-43.4,42.8C268.6,844.6,188,924.6,89,968L89.2,968.6
		L89.2,968.6z"/>
	<linearGradient id="SVGID_12_" gradientUnits="userSpaceOnUse" x1="344.194" y1="1221.1334" x2="1495.0543" y2="70.2731">
		<stop  offset="0" style="stop-color:#CDCDCD;stop-opacity:0"/>
		<stop  offset="0.1108" style="stop-color:#CDCDCD"/>
		<stop  offset="0.8243" style="stop-color:#CDCDCD"/>
		<stop  offset="0.9946" style="stop-color:#CDCDCD;stop-opacity:0"/>
	</linearGradient>
	<path class="st12" d="M98.1,974.2c23.8-11.1,46.7-24,68.6-38.6c22-14.8,43.2-30.7,63.5-47.8c41-34.2,80.1-72.9,117.9-110.3
		c15.4-15.2,31.2-30.9,46.9-46c5.1-4.9,10.3-9.9,15.5-14.8c72.2-67.8,183.7-158.8,315.6-168.2c14.2-1,28.5-1.1,42.8-0.2
		c90,5.4,175,46.2,257.2,85.5l7.6,3.6c36.7,17.6,79.5,37.5,123.8,51.1c47.6,14.8,90,20.1,129.4,16.4c18.1-1.6,35.8-5.6,52.9-11.7
		c16.6-6,32.4-14.1,46.8-24.2c33.6-23.7,57.3-57.2,63.3-89.9c4-20.7,2.4-42.1-4.6-61.9c-6.1-17.8-16.7-36.1-32.2-56.2
		c-30-38.6-74.5-74.9-117.6-110c-4.9-4-9.9-8.1-14.8-12.1c-2.8-2.3-5.7-4.6-8.5-6.9c-17-13.7-40.3-32.4-46.8-58.9
		c-10.2-42.1,2.6-79.4,38-110.9c15.2-13.4,32.4-24.4,50.9-32.6c76.3-34.8,184.7-29,252.1,13.4l0.4-0.6
		c-32.4-20.3-76-32.9-122.9-35.4s-93.1,5.3-129.9,22.1c-18.6,8.3-35.8,19.4-51.1,32.8c-17.3,15.4-29.3,32.3-35.8,50.3
		c-6.8,19-7.6,39.6-2.4,61.3c2.8,11.5,8.8,22.4,18.5,33.3c8.5,9.6,18.8,18,28.6,26c2.8,2.3,5.7,4.6,8.5,6.9l14.8,12.1
		c43,34.8,87.5,71.1,117.4,109.6c32.7,42,44,78.3,36.7,117.5c-6,32.4-29.6,65.8-63,89.4c-29.5,20.3-63.8,32.7-99.5,36
		c-86.1,8.1-172.1-28.9-252.8-67.5l-7.6-3.6C944.1,593.8,859,553,769,547.6c-14.3-0.9-28.6-0.8-42.9,0.2
		c-29.9,2.2-59.5,8.3-87.8,18.1c-28.5,9.9-56,22.6-82,37.9c-46.3,26.8-94.1,63.6-146.1,112.3c-5.2,4.9-10.4,9.8-15.5,14.8
		c-15.7,15.1-31.6,30.8-47,46c-76,75.1-154.4,152.7-249.9,196.8L98.1,974.2L98.1,974.2z"/>
	<linearGradient id="SVGID_13_" gradientUnits="userSpaceOnUse" x1="349.3525" y1="1222.6705" x2="1493.8555" y2="78.1674">
		<stop  offset="0" style="stop-color:#CDCDCD;stop-opacity:0"/>
		<stop  offset="0.1108" style="stop-color:#CDCDCD"/>
		<stop  offset="0.8243" style="stop-color:#CDCDCD"/>
		<stop  offset="0.9946" style="stop-color:#CDCDCD;stop-opacity:0"/>
	</linearGradient>
	<path class="st13" d="M107,979.7c23-11.2,45.1-24.1,66.2-38.5c21.3-14.5,41.8-30.1,61.4-46.8c39.7-33.3,77.7-70.8,114.6-107
		c16.6-16.3,33.7-33.2,50.7-49.4c5.3-5,10.5-9.9,15.4-14.5c113.7-105.5,213.1-157.9,313-165.2c14.1-1,28.2-1.1,42.3-0.3
		c88.9,5.1,173,44.8,254.4,83.2l8,3.8c35.6,16.8,77.1,35.8,119.8,48.9c46.1,14.2,87,19.6,125.1,16.5c17.5-1.4,34.7-5,51.3-10.6
		c16.2-5.4,31.6-12.8,45.9-22.1c16.1-10.4,30.5-23.4,42.6-38.3c11.8-14.9,20.2-31,24.3-46.7c5.4-19.9,5.7-40.9,0.7-61
		c-4.5-18.3-13.3-37-27-57.2c-26.8-39.8-69.5-77-110.7-113c-4.4-4-9-8-13.5-12c-3.1-2.7-5.6-4.9-8.1-7
		c-20.1-17.3-38.7-34.8-44.6-58.9c-10.2-41.4,1.3-78.4,34.2-110c14.4-13.7,30.9-25,48.8-33.5c17.9-8.6,36.9-14.7,56.5-18.4
		c65.3-12.5,140.2-1.3,189.6,31.9l0.4-0.6c-31.3-21-73.9-34-119.9-36.6s-91.2,5.6-126.9,23c-18,8.6-34.5,19.9-49,33.6
		c-16.1,15.5-27.3,32.4-33.1,50.3c-6.1,18.8-6.5,39.1-1.2,60.4c2.8,11.3,8.6,22.1,17.8,33c8.3,9.4,17.4,18.2,27.1,26.2
		c2.5,2.1,5,4.3,8.1,7c4.5,4,9.1,8,13.6,11.9c41.2,36,83.8,73.2,110.6,112.8c28.4,42.2,36.5,78.5,26.2,117.8
		c-8.2,31.2-33.1,62.8-66.6,84.6c-29.1,18.7-62.4,29.9-96.9,32.6c-83.2,6.8-166.5-28.6-244.5-65.5l-8-3.8
		c-81.4-38.4-165.6-78.1-254.7-83.2c-14.1-0.8-28.3-0.7-42.5,0.3c-29.6,2.3-58.9,8.3-87,17.9c-28.2,9.7-55.5,22.2-81.3,37.2
		c-46.2,26.5-93.7,62.5-145.1,110.2c-5.2,4.8-10.3,9.6-15.4,14.5c-17,16.2-34.1,33.1-50.7,49.4C274.8,859.5,198.5,934.6,106.7,979
		L107,979.7z"/>
	<linearGradient id="SVGID_14_" gradientUnits="userSpaceOnUse" x1="354.5286" y1="1224.7755" x2="1492.759" y2="86.5451">
		<stop  offset="0" style="stop-color:#CDCDCD;stop-opacity:0"/>
		<stop  offset="0.1108" style="stop-color:#CDCDCD"/>
		<stop  offset="0.8243" style="stop-color:#CDCDCD"/>
		<stop  offset="0.9946" style="stop-color:#CDCDCD;stop-opacity:0"/>
	</linearGradient>
	<path class="st14" d="M115.8,985.3c22.1-11.3,43.3-24.1,63.7-38.3c19.2-13.3,38.7-28.3,59.3-45.7c38.4-32.5,75.4-68.6,111.1-103.7
		c17.9-17.5,36.3-35.6,54.7-53c5.2-4.9,10.4-9.7,15.3-14.3C532.4,627.1,631,575.6,730.4,568.2c13.9-1,27.9-1.2,41.9-0.4
		c87.8,4.8,170.9,43.4,251.4,80.8l8.7,4c34.4,16,74.5,34,115.9,46.8c44.5,13.7,84,19.1,120.8,16.6c16.9-1.1,33.6-4.2,49.7-9.2
		c15.7-4.9,30.8-11.6,44.9-20c16.3-9.6,31-21.7,43.6-35.7c11.8-12.9,20.9-28,26.9-44.4c13.4-38.9,8.4-76.5-15.8-118.4
		c-23.7-40.9-64.4-79.1-103.7-116c-4.1-3.8-8.3-7.8-12.4-11.7c-2.6-2.4-5.1-4.8-7.7-7.2c-18.9-17.5-36.4-35.3-42.5-58.9
		c-10.4-40.9-0.1-77.7,30.3-109.2c13.6-13.9,29.4-25.5,46.7-34.4c18.4-9.4,38.1-16.1,58.5-19.9c63-12.1,134.4-0.3,181.6,33.6
		l0.4-0.6c-30.3-21.7-71.8-35.1-117-37.7s-89.2,5.9-123.9,23.9c-17.4,8.9-33.2,20.5-46.9,34.4c-30.7,31.8-41,68.7-30.5,109.9
		c2.8,11,8.4,21.8,17.1,32.7c7.8,9.5,16.4,18.3,25.6,26.5c2.2,2.1,4.7,4.4,7.7,7.2l12.4,11.6c39.3,36.9,80,75.1,103.5,115.8
		c24.1,41.6,29.1,79.1,15.8,117.8c-10.3,30-36.6,59.8-70.2,79.8c-28.7,17-61,26.9-94.2,29.1c-80.4,5.4-160.8-28.4-236.3-63.4l-8.7-4
		c-80.5-37.4-163.7-76-251.6-80.8c-14-0.8-28-0.6-42,0.4c-29.3,2.3-58.3,8.2-86.1,17.7c-28,9.6-55,21.8-80.7,36.5
		c-46.1,26.1-93.2,61.4-144.2,108.2c-5.2,4.7-10.3,9.5-15.4,14.3c-18.4,17.3-36.8,35.4-54.7,53c-71.5,70.1-145.5,142.6-233.8,187.5
		L115.8,985.3L115.8,985.3z"/>
	<linearGradient id="SVGID_15_" gradientUnits="userSpaceOnUse" x1="360.0667" y1="1226.7599" x2="1491.976" y2="94.8506">
		<stop  offset="0" style="stop-color:#CDCDCD;stop-opacity:0"/>
		<stop  offset="0.1108" style="stop-color:#CDCDCD"/>
		<stop  offset="0.8243" style="stop-color:#CDCDCD"/>
		<stop  offset="0.9946" style="stop-color:#CDCDCD;stop-opacity:0"/>
	</linearGradient>
	<path class="st15" d="M124.7,990.8c21.2-11.4,41.6-24.1,61.2-38c18.5-13.1,37.2-27.7,57.2-44.7c37.1-31.5,72.9-66.4,107.5-100.2
		c19.2-18.8,39.1-38.2,58.9-56.7c5.2-4.9,10.3-9.6,15.2-14c95.6-87,184.5-137.7,270.2-154.1c26-5,52.5-6.9,79-5.5
		c86.6,4.4,168.7,41.9,248.2,78.2l9.5,4.3c33.2,15.2,72.1,32.3,111.9,44.6c42.9,13.1,81,18.6,116.6,16.8
		c32.2-1.7,63.7-10.5,92.1-25.8c16.4-8.9,31.5-20.1,44.7-33.2c12.4-12.1,22.4-26.4,29.5-42.2c8.4-18.6,12.2-38.8,11.2-59.2
		c-1.1-19.3-6.4-38.7-16.5-59.4c-20.5-42-59.3-81.2-96.8-119.1c-3.7-3.8-7.4-7.6-11.2-11.3c-2.1-2.2-4.6-4.7-7.2-7.4
		c-17.8-17.8-34.2-35.6-40.3-58.9c-10.5-40.4-1.6-76.9,26.5-108.4c12.8-14.1,27.9-26,44.6-35.1c69-38.3,174.1-32,234.1,14l0.4-0.6
		c-15.9-11.9-33.6-21-52.4-27.1c-19.9-6.6-40.6-10.5-61.6-11.7c-21.2-1.3-42.5,0.1-63.3,4.3c-20.2,3.9-39.6,10.8-57.6,20.7
		c-16.8,9.2-32,21.1-44.9,35.4c-28.3,31.7-37.3,68.4-26.7,109.1c6.1,23.5,22.7,41.4,40.5,59.2c2.6,2.6,5.1,5.2,7.2,7.4
		c3.7,3.8,7.6,7.6,11.2,11.3c37.5,37.9,76.2,77,96.6,118.9s22,79.3,5.2,117.9c-12.7,29.2-39.6,56.6-73.8,75.1
		c-28.3,15.2-59.6,24-91.7,25.7c-77.6,4-155.2-28-228.1-61.3l-9.5-4.3c-79.5-36.2-161.7-73.8-248.5-78.3
		c-13.8-0.7-27.7-0.5-41.5,0.5c-29,2.3-57.6,8.1-85.1,17.3c-27.7,9.4-54.5,21.4-79.9,35.8c-46,25.7-92.8,60.4-143.1,106.2
		c-5.1,4.7-10.2,9.4-15.3,14.1c-19.8,18.5-39.7,38-58.9,56.7C280.7,875.1,209,945,124.4,990.1L124.7,990.8L124.7,990.8z"/>
	<linearGradient id="SVGID_16_" gradientUnits="userSpaceOnUse" x1="365.7634" y1="1229.0145" x2="1491.2545" y2="103.5233">
		<stop  offset="0" style="stop-color:#CDCDCD;stop-opacity:0"/>
		<stop  offset="0.1108" style="stop-color:#CDCDCD"/>
		<stop  offset="0.8243" style="stop-color:#CDCDCD"/>
		<stop  offset="0.9946" style="stop-color:#CDCDCD;stop-opacity:0"/>
	</linearGradient>
	<path class="st16" d="M133.6,996.4c36.3-20.4,73.4-46.8,113.4-81c35.7-30.5,70.3-64.1,103.7-96.7c20.7-20.1,42.1-40.9,63.5-60.7
		c5-4.7,10.1-9.3,15.1-13.8C538,646.5,637.8,595.4,734.7,588c13.6-1.1,27.3-1.3,40.9-0.6c85.3,4.1,166.4,40.4,244.8,75.5l10.6,4.7
		c39.8,17.8,73.4,31.7,108,42.4c41.3,12.6,78,18.1,112.3,16.9c31.1-1.1,61.6-8.7,89.5-22.3c34.4-16.8,62.8-42.5,77.7-70.6
		c20.3-38.1,22-76.9,5.3-118.7c-17.3-43.1-54.1-83.4-89.7-122.2c-3.3-3.6-6.8-7.4-10.1-11.1l-6.9-7.5c-16.6-17.9-32-35.9-38.2-58.9
		c-10.6-40.1-3-76.2,22.7-107.6c12-14.4,26.4-26.7,42.6-36.1c18.7-10.8,39.1-18.4,60.3-22.3c58.9-11.3,125.1,1.5,167.8,36.5l0.5-0.6
		c-15.2-12.2-32.4-21.7-50.9-28c-19.4-6.8-39.7-10.9-60.3-12.1c-20.7-1.3-41.6,0.1-61.9,4.4c-19.7,4-38.6,11.2-56,21.3
		c-16.2,9.5-30.7,21.8-42.7,36.3c-25.9,31.6-33.6,68-22.8,108.3c6.2,23.1,21.7,41.2,38.3,59.2c2.3,2.5,4.7,5.1,6.8,7.5
		c3.4,3.7,6.8,7.4,10.1,11.1c35.6,38.8,72.3,79,89.6,122c16.6,41.5,14.9,80.1-5.2,118c-14.9,28-43.1,53.6-77.4,70.3
		c-27.9,13.5-58.2,21.1-89.2,22.2c-74.9,2.7-149.7-27.8-219.9-59.2l-10.6-4.7c-78.5-35.2-159.6-71.5-245.1-75.6
		c-13.7-0.7-27.4-0.5-41,0.6c-28.7,2.3-57,8.1-84.3,17.2c-27.5,9.2-54.1,20.9-79.4,35c-46,25.3-92.4,59.4-142.2,104.3
		c-5.1,4.6-10.1,9.2-15.1,13.8c-21.4,19.8-42.8,40.6-63.5,60.7c-66.8,65.1-136.1,132.4-216.9,177.6L133.6,996.4L133.6,996.4z"/>
	<linearGradient id="SVGID_17_" gradientUnits="userSpaceOnUse" x1="371.0487" y1="1232.0098" x2="1490.733" y2="112.3253">
		<stop  offset="0" style="stop-color:#CDCDCD;stop-opacity:0"/>
		<stop  offset="0.1108" style="stop-color:#CDCDCD"/>
		<stop  offset="0.8243" style="stop-color:#CDCDCD"/>
		<stop  offset="0.9946" style="stop-color:#CDCDCD;stop-opacity:0"/>
	</linearGradient>
	<path class="st17" d="M142.4,1001.9c34.7-20.3,70.2-46.3,108.6-79.3c34.2-29.5,67.5-61.8,99.8-93c22.2-21.6,45.2-43.8,68.3-65
		c5.1-4.7,10.1-9.3,15-13.6c93.4-83.1,180.6-131.9,265.2-148.1c12.4-2.4,25-4.1,37.6-5.1c13.5-1.1,27-1.3,40.5-0.7
		c84,3.7,163.9,38.9,241.1,72.9l11.8,5.2c67.6,29.7,139.7,58.5,212.1,57.2c29.9-0.6,59.4-7,86.9-18.8c16.8-7.2,32.5-16.6,46.8-28
		c13.5-10.6,25.2-23.4,34.5-37.8c11.3-17.3,18.8-36.8,21.8-57.3c2.6-20.7,0.6-41.7-5.9-61.4c-14.2-44.7-49.5-86.3-83.5-126.5
		c-2.7-3.2-5.4-6.4-8.1-9.6c-2.1-2.5-4.2-5-6.4-7.6c-14.8-17.4-29.8-36.2-36-58.9c-10.9-39.7-4.5-75.6,18.9-106.8
		c11.1-14.7,24.9-27.2,40.5-37c64.7-41,166.4-34.4,222.2,14.5l0.5-0.6c-14.6-12.5-31.3-22.3-49.4-28.8c-18.9-7-38.7-11.2-58.8-12.5
		c-20.3-1.4-40.7,0.1-60.6,4.5c-19.3,4.2-37.7,11.6-54.5,22.1c-15.7,9.9-29.5,22.5-40.7,37.3c-23.5,31.4-29.9,67.6-19,107.5
		c6.3,22.9,21.3,41.8,36.1,59.2c2.2,2.6,4.4,5.2,6.4,7.6l8.1,9.6c34,40.1,69.2,81.7,83.4,126.2c13.3,41.9,8.2,80.5-15.7,118.1
		c-17,26.8-46.6,50.7-81,65.5c-27.4,11.8-56.8,18.2-86.6,18.8c-72.2,1.4-144.2-27.4-211.7-57.1l-11.8-5.2
		c-77.3-34-157.3-69.2-241.4-72.9c-13.5-0.6-27.1-0.4-40.6,0.7c-28.4,2.4-56.4,8.1-83.4,17c-27.2,9-53.5,20.5-78.6,34.3
		c-45.8,25-92,58.3-141.1,102.2c-4.9,4.4-10,8.9-15.1,13.6c-23.1,21.2-46.1,43.4-68.3,65c-64.4,62.5-131.1,127-208.1,172.3
		L142.4,1001.9L142.4,1001.9z"/>
	<linearGradient id="SVGID_18_" gradientUnits="userSpaceOnUse" x1="377.5814" y1="1234.2367" x2="1490.4568" y2="121.3613">
		<stop  offset="0" style="stop-color:#CDCDCD;stop-opacity:0"/>
		<stop  offset="0.1108" style="stop-color:#CDCDCD"/>
		<stop  offset="0.8243" style="stop-color:#CDCDCD"/>
		<stop  offset="0.9946" style="stop-color:#CDCDCD;stop-opacity:0"/>
	</linearGradient>
	<path class="st18" d="M151.3,1007.5c32.9-20.2,66.7-45.5,103.4-77.4c32.7-28.5,64.7-59.4,95.6-89.3c23.9-23.1,48.6-47,73.5-69.6
		c4.9-4.5,9.9-8.9,15-13.4c92.2-81.3,178.6-129,262.6-145.1c12.4-2.4,24.9-4.1,37.5-5.1c13.3-1.1,26.7-1.3,40-0.8
		c82.6,3.4,161.2,37.3,237.2,70.1l13.4,5.8c64.8,27.8,134,55,203.8,55.1c28.8,0,57.4-5.3,84.3-15.4c17-6.4,33-14.9,47.8-25.4
		c14.1-9.9,26.6-21.9,37.1-35.6c27.6-36.7,36.4-76.8,26.3-118.9c-10.9-45.7-44.1-88.3-76.2-129.4c-2.4-3.2-4.9-6.4-7.4-9.5
		c-1.9-2.5-4-5.1-6-7.8c-13.6-17.5-27.5-36.4-33.8-58.9c-11.1-39.4-6-75,15-106c10.3-14.9,23.4-27.8,38.4-37.9
		c63-42.8,162.1-36,216.2,14.7l0.6-0.6c-13.9-12.9-30.1-23-47.8-29.8c-18.4-7.2-37.7-11.4-57.4-12.7c-19.8-1.4-39.7,0.2-59,4.8
		c-18.9,4.4-36.9,12.1-53,22.9c-15.1,10.2-28.3,23.1-38.7,38.1c-10.5,15.1-17.2,32.5-19.8,50.7c-2.3,18.8-0.7,37.8,4.7,55.9
		c6.4,22.7,20.3,41.7,34,59.2c2.1,2.6,4.1,5.3,6,7.8c2.4,3.2,4.9,6.4,7.4,9.5c32,41.1,65.1,83.5,76,129.1
		c10,41.9,1.2,81.7-26.2,118.2c-19.3,25.7-50.1,47.8-84.6,60.8c-26.9,10.1-55.3,15.3-84,15.3c-69.7,0-138.8-27.2-203.5-55l-13.4-5.8
		C940.4,643.3,861.7,609.4,779,606c-13.4-0.5-26.8-0.2-40.2,0.9c-28.1,2.4-55.7,8-82.5,16.7c-27,8.8-53.1,20.1-78,33.6
		c-25.3,13.7-49.6,29.1-72.9,46c-21.8,15.8-44.4,33.9-67.2,54c-5,4.4-10,8.9-15,13.4c-24.9,22.6-49.6,46.5-73.5,69.6
		C287.9,900,224,961.8,150.8,1006.8L151.3,1007.5L151.3,1007.5z"/>
	<linearGradient id="SVGID_19_" gradientUnits="userSpaceOnUse" x1="383.8008" y1="1237.2797" x2="1490.4144" y2="130.6659">
		<stop  offset="0" style="stop-color:#CDCDCD;stop-opacity:0"/>
		<stop  offset="0.1108" style="stop-color:#CDCDCD"/>
		<stop  offset="0.8243" style="stop-color:#CDCDCD"/>
		<stop  offset="0.9946" style="stop-color:#CDCDCD;stop-opacity:0"/>
	</linearGradient>
	<path class="st19" d="M160.2,1013c31.1-20,63.2-44.7,98.2-75.3c31.2-27.3,61.7-56.8,91.3-85.4c25.7-24.8,52.2-50.5,79-74.5
		c5-4.5,10-8.9,14.9-13.1C548.3,673.4,645.6,625.2,741,617.4c13.2-1.1,26.4-1.4,39.6-0.9c81,3.1,158.3,35.7,233,67.2l15.2,6.4
		c30.3,12.7,62.9,25.8,96.2,35.8c36.5,10.9,69.1,16.5,99.5,17.2c17.5,0.4,35-1.1,52.2-4.3c10-1.9,19.9-4.4,29.6-7.5
		c17.2-5.5,33.6-13.2,48.9-22.8c14.7-9.2,28.1-20.5,39.6-33.5c14.4-16.1,25.5-34.9,32.3-55.3c6.6-20.5,8.1-42.3,4.5-63.6
		c-7.7-46.8-38.7-90.3-68.7-132.3l-6.8-9.4l-3.6-5l-2-2.9c-11.9-16.6-25.1-36.2-31.6-58.9c-11.3-39.2-7.6-74.6,11.2-105.2
		c9.5-15.2,21.9-28.3,36.4-38.7c18.2-12.9,39-21.7,61-25.6c53.2-10.2,112.8,4,149.2,40.6l0.6-0.6c-51.9-52-150.6-59-211.3-15
		c-14.6,10.5-27,23.8-36.6,39c-18.9,30.8-22.7,66.4-11.3,105.9c6.6,22.9,19.9,42.5,31.8,59.2l2,2.9l3.6,5c2.2,3.2,4.5,6.3,6.7,9.4
		c29.9,42,60.9,85.4,68.6,132c7,42.7-5.3,82.5-36.7,118.3c-21.7,24.8-53,44.7-88.1,56c-26.3,8.5-53.9,12.6-81.5,12
		c-67.3-1.5-133.4-26.9-195.3-52.9l-15.2-6.4C939,651.6,861.7,619,780.5,615.9c-13.2-0.5-26.5-0.2-39.7,0.9
		c-27.7,2.4-55.1,7.9-81.6,16.5c-26.7,8.7-52.5,19.7-77.2,32.9c-25.1,13.4-49.3,28.5-72.4,45.1c-21.8,15.6-44.3,33.4-66.8,53
		c-4.8,4.2-9.8,8.6-14.8,13.1c-26.9,24.1-53.4,49.8-79.1,74.6c-59,57-120.1,116-189.3,160.5L160.2,1013L160.2,1013z"/>
	<linearGradient id="SVGID_20_" gradientUnits="userSpaceOnUse" x1="390.4869" y1="1240.5575" x2="1490.9104" y2="140.1339">
		<stop  offset="0" style="stop-color:#CDCDCD;stop-opacity:0"/>
		<stop  offset="0.1108" style="stop-color:#CDCDCD"/>
		<stop  offset="0.8243" style="stop-color:#CDCDCD"/>
		<stop  offset="0.9946" style="stop-color:#CDCDCD;stop-opacity:0"/>
	</linearGradient>
	<path class="st20" d="M169,1018.6c29.2-19.7,59.5-43.6,92.6-72.9c29.5-26.1,58.5-54.1,86.6-81.3c27.6-26.6,56.1-54.2,85.1-79.9
		c5-4.4,10-8.8,14.8-13c89.1-76.7,175.9-123.4,258.8-139.3c12-2.3,24.1-4,36.2-5c13-1.1,26.1-1.4,39.1-1
		c79.4,2.8,155.2,34,228.5,64.2l17.3,7.1c27.4,11.3,59.8,24,92.2,33.6c34.9,10.3,66,16,95.3,17.3c26.7,1.2,53.3-1.7,79.1-8.5
		c35.3-9.3,68-27.6,92.1-51.4c35-34.6,51.4-75.8,47.4-119.2c-4.4-47.9-33.3-92.3-61.2-135.2l-6.1-9.4l-2.2-3.4l-3-4.6
		c-10.9-16.9-23-37.1-29.5-59c-11.7-39.2-9.2-74.3,7.4-104.4c8.7-15.4,20.3-28.8,34.3-39.5c17.8-13.5,38.5-22.6,60.5-26.6
		c51.5-9.9,109.3,4.8,143.6,41.7l0.6-0.6c-12.6-13.4-27.9-24.1-44.8-31.4c-17.3-7.5-35.7-12-54.6-13.3c-18.9-1.5-37.9,0.3-56.2,5.2
		c-18,4.7-34.9,12.9-49.7,24.3c-14.1,10.8-25.8,24.4-34.5,39.8c-16.7,30.3-19.2,65.6-7.5,105c6.5,22,18.6,42.3,29.6,59.2l3,4.6
		l2.2,3.4l6.1,9.4c27.8,42.8,56.7,87.1,61.1,134.8c4,43-12.3,84-47.2,118.4c-24,23.7-56.6,41.9-91.7,51.2
		c-25.7,6.8-52.3,9.7-78.9,8.5c-65.1-2.8-130.7-27.7-187.1-50.8c-5.8-2.4-11.6-4.8-17.3-7.1c-73.3-30.2-149.3-61.5-228.8-64.2
		c-13.1-0.4-26.2-0.1-39.2,1c-27.4,2.4-54.5,7.8-80.8,16.2c-26.4,8.5-52.1,19.2-76.6,32.2c-24.9,13.1-48.9,27.8-71.8,44
		c-21.8,15.3-44.1,32.8-66.4,52c-5,4.3-9.9,8.6-14.8,13c-29,25.8-57.6,53.3-85.1,80c-56,54.1-114,110.2-179.1,154.1l0.5,0.7
		L169,1018.6z"/>
	<linearGradient id="SVGID_21_" gradientUnits="userSpaceOnUse" x1="397.18" y1="1244.4403" x2="1491.6926" y2="149.9276">
		<stop  offset="0" style="stop-color:#CDCDCD;stop-opacity:0"/>
		<stop  offset="0.1108" style="stop-color:#CDCDCD"/>
		<stop  offset="0.8243" style="stop-color:#CDCDCD"/>
		<stop  offset="0.9946" style="stop-color:#CDCDCD;stop-opacity:0"/>
	</linearGradient>
	<path class="st21" d="M177.9,1024.2c60.8-43,115.6-96,168.6-147.2c29.6-28.6,60.3-58.2,91.7-85.8c5-4.3,9.9-8.6,14.6-12.7
		C553.7,692.6,652.2,645,745.3,637.2c12.9-1.1,25.8-1.5,38.7-1.1c77.6,2.5,151.9,32.3,223.7,61.2c6.5,2.6,13.2,5.3,19.8,7.9
		c25.9,10.3,56.7,22.2,88.2,31.5c33.2,9.8,63,15.5,90.9,17.3c25.6,1.8,51.4,0.1,76.6-5c35.3-7.3,68.2-23.3,95.7-46.6
		c17.7-14.8,32.2-33,42.8-53.5c10.4-20.3,15.6-42.9,15.1-65.8c-1.1-49-27.8-94.3-53.7-138.1l-5.5-9.3c-1.6-2.7-3.2-5.4-4.8-8.2
		c-9.1-15.6-20.4-36.4-27.3-59c-12-39.3-10.8-74.1,3.6-103.5c7.8-15.6,18.8-29.4,32.2-40.5c56.2-46.9,150.6-39.5,198.1,15.3l0.7-0.6
		c-12-13.7-26.8-24.6-43.3-32.2c-33.9-15.4-72.1-18.4-107.9-8.4c-17.6,4.9-34.1,13.4-48.2,25.1c-13.5,11.2-24.6,25.1-32.4,40.9
		c-7.7,15.9-11.7,33.3-11.9,51c0,18.1,2.7,36,8.3,53.3c6.9,22.6,18.3,43.5,27.4,59.2c1.6,2.8,3.2,5.5,4.8,8.2l5.5,9.3
		c25.7,43.6,52.3,88.9,53.5,137.5c1.2,43.6-19.4,85.8-57.6,118.6c-27.4,23.2-60.2,39.1-95.3,46.4c-25.1,5.1-50.7,6.8-76.3,5
		c-63.2-4.3-125.5-27.4-178.9-48.8c-6.6-2.6-13.3-5.4-19.8-7.9c-71.9-28.9-146.3-58.8-224-61.3c-12.9-0.4-25.9-0.1-38.8,1
		c-27.1,2.4-53.9,7.8-79.8,16c-26.2,8.3-51.6,18.9-76,31.6c-44.8,23-90.9,54.7-137.2,94c-4.8,4.1-9.7,8.3-14.7,12.7
		c-31.4,27.6-62.1,57.2-91.7,85.8c-53,51.2-107.7,104.1-168.5,147.1L177.9,1024.2L177.9,1024.2z"/>
	<linearGradient id="SVGID_22_" gradientUnits="userSpaceOnUse" x1="404.6688" y1="1247.9752" x2="1492.8336" y2="159.8103">
		<stop  offset="0" style="stop-color:#CDCDCD;stop-opacity:0"/>
		<stop  offset="0.1108" style="stop-color:#CDCDCD"/>
		<stop  offset="0.8243" style="stop-color:#CDCDCD"/>
		<stop  offset="0.9946" style="stop-color:#CDCDCD;stop-opacity:0"/>
	</linearGradient>
	<path class="st22" d="M186.8,1029.6c56.4-41.7,107.8-91.4,157.4-139.5c36.4-35.2,74-71.7,113.4-104.8
		c113.5-95.5,223.9-142.3,328-139.5c75.7,2.1,148.3,30.6,218.5,58.1c7.4,2.9,15.1,5.9,22.6,8.8c35.6,13.8,77.8,29.2,120.6,38.7
		c45.7,10.1,86.4,12.2,124.3,6.5c21.1-3.2,41.6-9.5,60.8-18.6c19.3-9,37.2-20.8,53-35.1c15.4-13.8,28.3-30.2,38-48.5
		c9.6-18.2,15.1-38.3,16.1-58.9c2.1-50.1-22.4-96.2-46.1-140.9c-3.1-5.8-6.3-11.8-9.3-17.7c-22.3-42.9-49.1-106.4-25.4-161.8
		c6.9-15.8,17.2-29.9,30.1-41.3c25.5-22.9,61.7-34.2,99.2-31.2s71.4,20.1,92.9,46.8l0.7-0.6c-21.7-26.9-55.8-44-93.6-47.1
		s-74.2,8.4-99.9,31.4c-13,11.5-23.4,25.7-30.4,41.6c-5.4,12.8-8.5,26.5-9.1,40.4c-0.6,14,0.7,28,3.7,41.6
		c5.1,23.9,15.2,50.2,30.9,80.5c3.1,5.9,6.2,11.8,9.3,17.7c23.6,44.5,48,90.6,45.9,140.4c-3.5,85.2-87.7,148.4-167,160.3
		c-85.2,12.8-170.8-16.6-244.5-45.1c-7.5-2.9-15.1-5.9-22.6-8.8c-35-13.7-71.2-28-107.5-38.7c-40.8-12.1-77.3-18.5-111.3-19.4
		c-25.1-0.6-50.2,1.5-74.8,6.3c-81.9,15.7-167,60.4-253.9,133.4c-39.4,33.1-77,69.6-113.5,104.8c-49.6,48.1-100.9,97.8-157.3,139.6
		L186.8,1029.6L186.8,1029.6z"/>
</g>
</svg>
